HIERARCHY
ROOT pelvis
{
  OFFSET 0 100 0
  CHANNELS 6 Xposition Yposition Zposition Zrotation Xrotation Yrotation
  JOINT pelvis_right_femur
  {
    OFFSET -10.78128 -3.44521 -0.5502486
    CHANNELS 3 Zrotation Xrotation Yrotation
    JOINT right_femur_tibia
    {
      OFFSET -0.8047443 -44.0398 -0.1307829
      CHANNELS 3 Zrotation Xrotation Yrotation
      JOINT right_tibia_foot
      {
        OFFSET 3.006224 -47.83518 -5
        CHANNELS 3 Zrotation Xrotation Yrotation
        End Site
        {
          OFFSET 0 -5 15
        }
      }
    }
  }
  JOINT pelvis_left_femur
  {
    OFFSET 10.78128 -3.44521 -0.5502486
    CHANNELS 3 Zrotation Xrotation Yrotation
    JOINT left_femur_tibia
    {
      OFFSET 0.8047443 -44.0398 -0.1307829
      CHANNELS 3 Zrotation Xrotation Yrotation
      JOINT left_tibia_foot
      {
        OFFSET -4.370144 -48.10324 -4.275266
        CHANNELS 3 Zrotation Xrotation Yrotation
        End Site
        {
          OFFSET 0 -5 15
        }
      }
    }
  }
  JOINT pelvis_spine1
  {
    OFFSET 0 6.468898 -3.129235
    CHANNELS 3 Zrotation Xrotation Yrotation
    JOINT spine1
    {
      OFFSET 0 23.15396 4.99043
      CHANNELS 3 Zrotation Xrotation Yrotation
      JOINT spine2
      {
        OFFSET 0 20.79997 -5.064912
        CHANNELS 3 Zrotation Xrotation Yrotation
        JOINT neck
        {
          OFFSET 0 14.38658 9.616178
          CHANNELS 3 Zrotation Xrotation Yrotation
          End Site
          {
            OFFSET 0 20 0
          }
        }
      }
      JOINT right_manubrium
      {
        OFFSET -5.722621 16.35077 3.967754
        CHANNELS 3 Zrotation Xrotation Yrotation
        JOINT right_clavicle
        {
          OFFSET -13.16364 1.694482 -4.693211
          CHANNELS 3 Zrotation Xrotation Yrotation
          JOINT right_humerus
          {
            OFFSET -28.5034 -0.3100689 -2.792744
            CHANNELS 3 Zrotation Xrotation Yrotation
            JOINT right_radius
            {
              OFFSET -25.15693 0.02248979 -1.271978
              CHANNELS 3 Zrotation Xrotation Yrotation
              End Site
              {
                OFFSET -15 0 0
              }
            }
          }
        }
      }
      JOINT left_manubrium
      {
        OFFSET 5.722621 16.35077 3.967754
        CHANNELS 3 Zrotation Xrotation Yrotation
        JOINT left_clavicle
        {
          OFFSET 13.16364 1.694482 -4.693211
          CHANNELS 3 Zrotation Xrotation Yrotation
          JOINT left_humerus
          {
            OFFSET 29.39168 -1.063119 -2.237045
            CHANNELS 3 Zrotation Xrotation Yrotation
            JOINT left_radius
            {
              OFFSET 24.59957 -0.9528479 0.9047498
              CHANNELS 3 Zrotation Xrotation Yrotation
              End Site
              {
                OFFSET 15 -0 -0
              }
            }
          }
        }
      }
    }
  }
}
MOTION
Frames: 15
Frame Time: 0.0416666666667
0 103.5113 0 1.332887 -3.353424 0.1143445 1.630915 -11.74569 7.307813 -0 40.44572 -0 -5.931856 -16.02322 -4.143762 -6.54873 12.3991 -24.26873 -0 6.231029 -0 0.3970286 -19.06004 23.57529 -1.467537 -1.133937 2.915595 1.12232 6.676888 -7.518468 1.381065 23.0634 8.699265 5.169544 -23.25443 9.488524 5.766807 -17.57409 9.983568 89.38726 37.04182 -24.0977 -0 0 13.73 -8.038135 9.18289 2.87324 6.311511 -20.60844 -3.156521 -98.64297 42.75858 25.30913 0 0 -24.82776 -9.46552 17.6445 27.7716
0.08781918 104.2241 1.142722 0.4962382 -2.66376 0.02277062 2.934429 -14.38505 8.353561 -0 41.65146 -0 -6.459646 -15.74839 -4.803471 -5.916824 12.36661 -24.63903 -0 6.782809 -0 -0.9868961 -20.19987 23.4885 -1.34706 -1.120579 3.04381 1.037587 6.778719 -7.500649 1.393226 22.98911 8.689424 5.186001 -23.17939 9.457728 5.77074 -17.5633 9.994438 89.4138 37.15106 -24.11014 -0 0 13.71274 -8.197985 9.408002 2.901546 6.390621 -20.74922 -3.09777 -98.49418 42.51534 25.22369 0 0 -25.00698 -9.186808 17.65704 27.57522
0.2379279 104.2425 3.647358 -0.168163 -3.276178 0.05842067 2.862708 -21.77387 2.118685 -0 32.11987 -0 -9.290841 -6.464931 -2.06471 -5.103579 13.77798 -19.22497 -0 6.544235 -0 -1.339845 -21.97974 19.03488 -2.03434 -1.83201 4.174071 2.026057 8.037341 -7.711894 1.160586 22.79823 6.761566 3.444475 -23.7449 8.260961 6.254803 -17.79999 10.9526 87.12564 36.20644 -21.97463 -0 0 13.60582 -7.25753 8.25436 4.854519 5.161918 -20.28881 -2.911528 -95.59463 36.62818 23.63792 0 0 -23.54834 -3.99202 16.54299 20.756
0.3817661 104.2504 6.264896 -0.4364416 -2.164977 0.114941 3.510638 -24.55613 2.570709 -0 29.98114 -0 -8.818255 -6.416945 -2.263532 -5.042937 13.85124 -18.94634 -0 6.375589 -0 -0.859844 -22.6396 18.96486 -2.587211 -2.030863 3.888137 2.738663 7.881768 -7.944112 1.026293 22.86241 6.433758 2.99922 -24.40949 8.123359 6.393248 -17.76706 11.22321 86.3174 35.38067 -21.33458 -0 0 13.55532 -6.576575 7.339218 5.320998 4.682494 -19.72143 -2.78451 -95.23269 35.47141 23.21327 0 0 -21.9756 -3.31899 16.31895 19.08093
0.5315926 104.1332 9.069955 -0.6328505 -1.710634 0.18803 3.754135 -26.48884 2.410905 -0 28.22822 -0 -8.693253 -5.404215 -2.344423 -4.910873 13.95339 -18.1746 -0 6.417883 -0 -1.011979 -23.16618 18.37254 -2.990253 -2.257122 3.446545 3.716455 7.56427 -8.397243 0.8475557 22.64255 6.221479 2.517275 -25.6039 8.122549 6.429991 -17.63614 11.57441 85.50678 34.11059 -20.77295 -0 0 13.46856 -5.844637 6.58628 5.79103 4.381162 -19.24139 -2.141385 -94.7464 33.37824 22.48499 0 0 -19.70807 -1.93031 16.24678 16.28604
0.6859575 103.9586 11.98212 -0.7357842 -1.005639 0.2830422 4.079393 -28.08953 2.632852 -0 26.50471 -0 -8.271537 -5.310962 -2.441154 -4.92217 14.03551 -17.96968 -0 6.387766 -0 -0.7659957 -23.58478 18.24456 -2.979477 -2.344713 2.800977 4.675404 6.902126 -9.013638 0.7074109 22.165 6.298395 2.198561 -27.03129 8.331854 6.171944 -17.44327 11.84397 85.35771 32.87887 -20.91783 -0 0 13.43018 -5.151469 6.328121 5.947133 4.238816 -18.8743 -1.154957 -94.61698 32.09581 22.00233 0 0 -18.03504 -1.587505 16.32056 14.9258
0.8471397 103.7094 15.02898 -0.8093533 -0.3262244 0.4040626 4.352576 -29.59882 2.757144 -0 24.61944 -0 -7.84759 -5.111243 -2.481278 -4.955477 14.15031 -17.72786 -0 6.445764 -0 -0.5207661 -23.97032 18.07238 -2.483487 -2.30661 2.257326 5.565221 6.228698 -9.721446 0.5864796 21.35038 6.55164 1.912651 -28.69293 8.71854 5.599743 -17.31358 12.16296 85.76336 31.82154 -21.3812 -0 0 13.36994 -4.6449 6.677157 6.00758 4.187707 -18.72089 0.2451166 -94.47006 30.39953 21.72544 0 0 -16.73819 -0.9309346 16.32254 13.54152
1.013412 103.4096 18.23496 -0.8604645 0.5559715 0.5701758 4.718883 -31.19464 2.928525 -0 22.41957 -0 -7.360339 -5.069569 -2.377852 -5.069022 14.31484 -17.67484 -0 6.667594 -0 0.0821673 -24.26903 18.1002 -1.637935 -2.045968 1.944263 6.254666 5.785536 -10.34373 0.5032512 20.47823 6.842664 1.613352 -30.17941 9.157747 4.785589 -17.31852 12.52981 86.85365 31.40123 -22.14491 -0 0 12.99014 -4.222421 7.383551 6.027328 3.91175 -18.68184 1.459865 -94.23345 28.84618 21.85016 0 0 -16.45888 -0.2719849 15.89915 12.76378
1.184724 103.0743 21.65381 -0.9257821 1.477515 0.7977191 5.145237 -32.80094 3.047023 -0 20.20414 -0 -6.968526 -4.805848 -2.144446 -5.206226 14.52716 -17.60428 -0 7.219362 -0 0.8713085 -24.40781 18.16454 -0.6954659 -1.587918 1.952057 6.649808 5.801861 -10.7172 0.4527704 19.79848 7.092861 1.337572 -31.148 9.570561 3.94414 -17.43105 12.87716 88.45043 31.92797 -23.09674 -0 0 12.01758 -3.90411 8.196909 6.014485 3.422546 -18.79855 2.003987 -93.70631 27.45059 22.14292 0 0 -17.37894 0.8617153 14.90006 12.07134
1.360033 102.7435 25.34939 -1.036498 2.363884 1.103439 5.664675 -34.32875 3.114174 -0 18.2555 -0 -6.790086 -4.228791 -1.781337 -5.342573 14.79277 -17.4719 -0 8.281343 -0 1.826434 -24.27364 18.24177 0.01426461 -1.092413 2.167981 6.736341 6.217882 -10.79247 0.415797 19.46079 7.274631 1.192017 -31.38528 9.85261 3.340307 -17.49549 13.07611 90.08153 33.21698 -24.11742 -0 0 10.52795 -3.875151 8.921858 6.016885 2.986463 -19.10268 1.694044 -92.77638 26.3556 22.07594 0 0 -19.32111 2.435267 13.51649 11.16621
1.536877 102.4527 29.39988 -1.201332 3.029812 1.49 6.190123 -35.58712 3.002998 -0 16.67049 -0 -6.899733 -3.199153 -1.362789 -5.425414 15.15353 -17.10317 -0 10.0162 -0 2.599135 -23.843 18.09617 0.324302 -0.745787 2.416901 6.537619 6.821595 -10.65313 0.3905192 19.34603 7.455359 1.321959 -30.94184 9.955726 3.172513 -17.36932 13.08221 91.11824 34.5787 -24.86703 -0 0 9.084296 -4.43337 9.592084 6.143827 2.990778 -19.62716 0.913607 -91.47695 25.33435 21.15212 0 0 -21.54472 4.255562 12.18793 9.752397
1.710166 102.2537 33.88379 -1.42159 3.383423 1.944223 6.688265 -36.38068 2.680354 -0 15.46319 -0 -7.283827 -1.788574 -0.9593418 -5.423411 15.62891 -16.44874 -0 12.62854 -0 2.899091 -23.08095 17.58167 0.2748532 -0.5902794 2.580276 6.14089 7.429625 -10.41342 0.3911264 19.29935 7.659382 1.729256 -30.07146 9.873851 3.433807 -17.05643 12.96944 91.2285 35.37104 -25.00878 -0 0 8.19237 -5.553659 10.18967 6.459229 3.483769 -20.27157 0.1324809 -90.08415 24.22413 19.47082 0 0 -23.28523 5.927511 11.24566 8.004191
1.871947 102.222 38.86465 -1.699177 3.367963 2.431481 7.165552 -36.45099 2.202185 -0 14.6794 -0 -7.857174 -0.1883319 -0.6679988 -5.301777 16.1733 -15.52424 -0 16.37819 -0 2.411843 -21.91029 16.59146 0.006596331 -0.5515095 2.652191 5.636976 7.976494 -10.12406 0.4215783 19.27569 7.874837 2.309532 -29.0466 9.664471 3.953997 -16.6674 12.82424 90.57156 35.48818 -24.50029 -0 0 7.928213 -6.985091 10.64396 6.907225 4.259823 -20.89438 -0.4433952 -88.89485 23.00951 17.52058 0 0 -24.19101 7.314987 10.7609 6.14267
2.012402 102.4829 44.35814 -2.070788 2.981564 2.891988 7.746295 -35.48481 1.786436 -0 14.63171 -0 -8.549074 1.211094 -0.5781104 -5.011916 16.59497 -14.47867 -0 21.62097 -0 0.9603713 -20.1056 15.1644 -0.3541581 -0.5535448 2.664546 5.091456 8.449454 -9.801872 0.465844 19.2962 8.087979 2.954067 -28.0332 9.393298 4.545672 -16.29164 12.68563 89.53621 35.15733 -23.56439 -0 0 8.088729 -8.532616 10.93877 7.398745 5.114111 -21.4228 -0.8288868 -88.03455 21.7643 15.6944 0 0 -24.30747 8.462112 10.65462 4.29642
2.124592 103.2014 50.28463 -2.588466 2.249786 3.229784 8.534802 -33.12197 1.662005 -0 15.69389 -0 -9.295382 1.800092 -0.75969 -4.48584 16.48144 -13.53919 -0 28.65877 -0 -1.562077 -17.37663 13.41383 -0.7306094 -0.5529943 2.645754 4.53756 8.859556 -9.458494 0.5040066 19.3791 8.2908 3.599474 -27.07693 9.091173 5.094846 -15.95805 12.56093 88.42988 34.61362 -22.44522 -0 0 8.440438 -10.1399 11.11568 7.889236 5.93782 -21.86358 -1.112314 -87.46879 20.54177 14.1317 0 0 -23.84607 9.44063 10.80083 2.521756
